<?xml version="1.0" encoding="UTF-8"?>
<svg width="54px" height="54px" viewBox="0 0 54 54" version="1.1" xmlns="http://www.w3.org/2000/svg" xmlns:xlink="http://www.w3.org/1999/xlink">
    <title>Group 2 Copy</title>
    <g id="Native-designed" stroke="none" stroke-width="1" fill="none" fill-rule="evenodd">
        <g id="Group-2-Copy">
            <circle id="Oval" fill="#0089EB" cx="27" cy="27" r="27"></circle>
            <g id="Group-3">
                <path d="M37.252261,39.9999046 C39.6951873,39.9999046 40.9186341,37.0468019 39.1913433,35.3186719 L4.6804698,0.808561305 C4.12184686,0.250014663 3.4351267,0 2.76168165,0 C1.35230696,0 0,1.09451033 0,2.7476436 L0,37.2577542 C0,38.7725669 1.22733777,39.9999046 2.74215044,39.9999046 L37.252261,39.9999046 Z" id="r" fill="#003B66" fill-rule="nonzero"></path>
                <path d="M34.8186426,36.2499136 L3.74999106,36.2499136 L3.74999106,5.18126206 L8.67811041,10.1093814 L7.79447605,10.9929395 C7.30619596,11.4812196 7.30619596,12.2726148 7.79447605,12.7608949 L8.67811041,13.6445292 C9.1663905,14.1328093 9.95778571,14.1328093 10.4460658,13.6445292 L11.3296239,12.7608949 L14.8656109,16.2960427 L13.9819766,17.1796771 C13.4936965,17.6679571 13.4936965,18.4593524 13.9819766,18.9476324 L14.8656109,19.8311905 C15.353891,20.3194706 16.1452862,20.3194706 16.6335663,19.8311905 L17.5171244,18.9476324 L21.0522722,22.4827803 L20.1687141,23.3663383 C19.680434,23.8546184 19.680434,24.6460136 20.1687141,25.1342937 L21.0522722,26.0179281 C21.5405523,26.5062082 22.3319475,26.5062082 22.8202276,26.0179281 L23.7038619,25.1342937 L27.2390098,28.6702808 L26.3553754,29.5538388 C25.8670953,30.0421189 25.8670953,30.8335141 26.3553754,31.3217942 L27.2390098,32.2054286 C27.7272898,32.6937087 28.5186851,32.6937087 29.0069651,32.2054286 L29.8905232,31.3217942 L34.8186426,36.2499136 Z" id="Path" fill="#FFFFFF"></path>
                <polygon id="Path" fill="#003B66" fill-rule="nonzero" points="19.7296435 29.9999285 9.99997616 20.2702611 9.99997616 29.9999285"></polygon>
            </g>
        </g>
    </g>
</svg>