<?xml version="1.0" encoding="UTF-8"?>
<svg width="60px" height="52px" viewBox="0 0 60 52" version="1.1" xmlns="http://www.w3.org/2000/svg" xmlns:xlink="http://www.w3.org/1999/xlink">
    <title>Group 16</title>
    <g id="Native-designed" stroke="none" stroke-width="1" fill="none" fill-rule="evenodd">
        <g id="Group-16">
            <circle id="Oval" fill="#EE5740" cx="34.137931" cy="25.862069" r="25.862069"></circle>
            <g id="Group-15" transform="translate(0.000000, 1.939739)" fill-rule="nonzero">
                <path d="M2.03928494,38.0171507 C7.2589859,38.0171507 11.3738532,35.8345822 13.8475469,34.0855937 C15.9680453,34.7568473 19.4941155,35.30164 21.7183681,35.30164 L21.726738,35.30164 C33.7241941,35.30164 43.4508241,27.398665 43.4508241,17.65082 C43.4508241,7.90297498 33.7241941,0 21.726738,0 C9.72928194,0 0.00265186598,7.90214628 0.00265186598,17.65082 C0.00265186598,21.6858827 1.68799557,25.3926112 4.49176375,28.366016 C3.2273209,31.7137482 0.596669846,34.5429577 0.557637694,34.5803324 C0.249772627,34.9055175 0,35.5327667 0,35.9805177 C0,37.1047431 0.91240764,38.0171507 2.03663308,38.0171507 L2.03928494,38.0171507 Z" id="c" fill="#003B66"></path>
                <path d="M6.61665424,33.2209196 C7.16766227,32.3205283 7.92269824,30.7904016 8.30191507,29.8053162 L9.20230645,27.4232776 L7.45505825,25.5707835 C5.91316392,23.9364053 4.07591802,21.2361428 4.07591802,17.65082 C4.07591802,10.1645194 11.9941412,4.07326615 21.726738,4.07326615 C31.4593348,4.07326615 39.377558,10.1645194 39.377558,17.65082 C39.377558,25.1371205 31.4593348,31.2283738 21.726738,31.2283738 L21.715219,31.2283738 C19.8391066,31.2283738 16.8648732,30.7687723 15.0762725,30.2024332 L13.145714,29.590598 L11.4935187,30.759988 C10.2517824,31.645877 8.06697632,32.7483903 6.61665424,33.2209196 Z" id="Path" fill="#FFFFFF"></path>
                <path d="M23.7633711,25.7973523 C24.1381129,25.7973523 24.4422488,25.4932164 24.4422488,25.1184746 L24.4422488,20.3663308 L29.1943926,20.3663308 C29.5691344,20.3663308 29.8732703,20.0621949 29.8732703,19.6874531 L29.8732703,15.6141869 C29.8732703,15.2394451 29.5691344,14.9353092 29.1943926,14.9353092 L24.4422488,14.9353092 L24.4422488,10.1831654 C24.4422488,9.80842356 24.1381129,9.50428768 23.7633711,9.50428768 L19.6901049,9.50428768 C19.3153631,9.50428768 19.0112272,9.80842356 19.0112272,10.1831654 L19.0112272,14.9353092 L14.2590834,14.9353092 C13.8843416,14.9353092 13.5802057,15.2394451 13.5802057,15.6141869 L13.5802057,19.6874531 C13.5802057,20.0621949 13.8843416,20.3663308 14.2590834,20.3663308 L19.0112272,20.3663308 L19.0112272,25.1184746 C19.0112272,25.4932164 19.3153631,25.7973523 19.6901049,25.7973523 L23.7633711,25.7973523 Z" id="Path" fill="#003B66"></path>
            </g>
        </g>
    </g>
</svg>