<?xml version="1.0" encoding="UTF-8"?>
<svg width="60px" height="54px" viewBox="0 0 60 54" version="1.1" xmlns="http://www.w3.org/2000/svg" xmlns:xlink="http://www.w3.org/1999/xlink">
    <title>Group Copy</title>
    <g id="Native-designed" stroke="none" stroke-width="1" fill="none" fill-rule="evenodd">
        <g id="Group-Copy">
            <circle id="Oval" fill="#FFAC00" cx="33.2142857" cy="26.7857143" r="26.7857143"></circle>
            <g id="Group-4" fill-rule="nonzero">
                <path d="M21.4285714,42.8571429 C33.266129,42.8571429 42.8571429,33.266129 42.8571429,21.4285714 C42.8571429,9.59101382 33.266129,2.37904934e-15 21.4285714,2.37904934e-15 C9.59101382,2.37904934e-15 2.37904934e-15,9.59101382 2.37904934e-15,21.4285714 C2.37904934e-15,33.266129 9.59101382,42.8571429 21.4285714,42.8571429 Z" id="Path" fill="#003B66"></path>
                <path d="M21.2989631,38.5800691 C11.7684501,38.5800691 4.01785714,30.8294762 4.01785714,21.2989631 C4.01785714,11.7684501 11.7684501,4.01785714 21.2989631,4.01785714 C30.8294762,4.01785714 38.5800691,11.7684501 38.5800691,21.2989631 C38.5800691,30.8294762 30.8294762,38.5800691 21.2989631,38.5800691 Z" id="Path" fill="#FFFFFF"></path>
                <g id="Group-2" transform="translate(10.714286, 14.516129)" fill="#003B66">
                    <path d="M4.01115091,5.52995392 C5.54054567,5.52995392 6.77612787,4.29437171 6.77612787,2.76497696 C6.77612787,1.2355822 5.54054567,-2.37904934e-15 4.01115091,-2.37904934e-15 C2.48175615,-2.37904934e-15 1.24617395,1.2355822 1.24617395,2.76497696 C1.24617395,4.29437171 2.48175615,5.52995392 4.01115091,5.52995392 Z" id="Path"></path>
                    <path d="M17.8360357,5.52995392 C19.3654305,5.52995392 20.6010127,4.29437171 20.6010127,2.76497696 C20.6010127,1.2355822 19.3654305,-2.37904934e-15 17.8360357,-2.37904934e-15 C16.3066409,-2.37904934e-15 15.0710587,1.2355822 15.0710587,2.76497696 C15.0710587,4.29437171 16.3066409,5.52995392 17.8360357,5.52995392 Z" id="Path"></path>
                    <path d="M10.9235933,19.3462319 C14.9673552,19.3462319 18.7778897,17.5662274 21.3700556,14.4556283 C22.1045026,13.574275 21.9835011,12.2695853 21.1021479,11.5351382 C20.2294858,10.809298 18.9161048,10.9216927 18.1816578,11.8029616 C16.3844397,13.9630999 13.731773,15.2073733 10.9235933,15.2073733 C8.11541358,15.2073733 5.46274694,13.9717911 3.66552879,11.8029616 C2.93108179,10.9216927 1.61770085,10.809298 0.745038754,11.5351382 C-0.136314528,12.2695853 -0.24862484,13.574275 0.477130983,14.4556283 C3.06929688,17.5662274 6.87983138,19.3462319 10.9235933,19.3462319 Z" id="Path"></path>
                </g>
            </g>
        </g>
    </g>
</svg>