<?xml version="1.0" encoding="UTF-8"?>
<svg width="60px" height="54px" viewBox="0 0 60 54" version="1.1" xmlns="http://www.w3.org/2000/svg" xmlns:xlink="http://www.w3.org/1999/xlink">
    <title>Group 4 Copy</title>
    <g id="Native-designed" stroke="none" stroke-width="1" fill="none" fill-rule="evenodd">
        <g id="Group-2">
            <g id="Group-Copy-2" transform="translate(6.000000, 0.000000)" fill="#22B2B8">
                <circle id="Oval" cx="27" cy="27" r="27"></circle>
            </g>
            <g id="Group-3" transform="translate(0.000000, 5.000000)">
                <path d="M14.1093414,29.2638191 C16.1277865,29.2638191 17.7673188,27.6242869 17.7673188,25.6058417 L17.7673188,16.7221824 L24.0381371,16.7221824 L24.0381371,25.6058417 C24.0381371,27.6242869 25.6776693,29.2638191 27.6961145,29.2638191 L29.7863873,29.2638191 C31.8048325,29.2638191 33.4443647,27.6242869 33.4443647,25.6058417 L33.4443647,25.0310295 C33.6141739,25.0571196 33.7905534,25.0832735 33.9669329,25.0832735 L36.0572057,25.0832735 C38.0756509,25.0832735 39.7151831,23.4437413 39.7151831,21.4252961 L39.7151831,16.7221824 L41.2828877,16.7221824 C41.5703257,16.7221824 41.8054559,16.4870522 41.8054559,16.1996142 L41.8054559,13.064205 C41.8054559,12.7767669 41.5703257,12.5416368 41.2828877,12.5416368 L39.7151831,12.5416368 L39.7151831,7.83852298 C39.7151831,5.8200778 38.0756509,4.18054559 36.0572057,4.18054559 L33.9669329,4.18054559 C33.7905534,4.18054559 33.6141739,4.20669951 33.4443647,4.23278965 L33.4443647,3.65797739 C33.4443647,1.63953221 31.8048325,0 29.7863873,0 L27.6961145,0 C25.6776693,0 24.0381371,1.63953221 24.0381371,3.65797739 L24.0381371,12.5416368 L17.7673188,12.5416368 L17.7673188,3.65797739 C17.7673188,1.63953221 16.1277865,0 14.1093414,0 L12.0190686,0 C10.0006234,0 8.36109118,1.63953221 8.36109118,3.65797739 L8.36109118,4.23278965 C8.19128203,4.20669951 8.0149025,4.18054559 7.83852298,4.18054559 L5.74825018,4.18054559 C3.729805,4.18054559 2.09027279,5.8200778 2.09027279,7.83852298 L2.09027279,12.5416368 L0.522568199,12.5416368 C0.235130173,12.5416368 0,12.7767669 0,13.064205 L0,16.1996142 C0,16.4870522 0.235130173,16.7221824 0.522568199,16.7221824 L2.09027279,16.7221824 L2.09027279,21.4252961 C2.09027279,23.4437413 3.729805,25.0832735 5.74825018,25.0832735 L7.83852298,25.0832735 C8.0149025,25.0832735 8.19128203,25.0571196 8.36109118,25.0310295 L8.36109118,25.6058417 C8.36109118,27.6242869 10.0006234,29.2638191 12.0190686,29.2638191 L14.1093414,29.2638191 Z" id="d" fill="#003B66" fill-rule="nonzero"></path>
                <path d="M14.1093414,26.1284099 L12.0190686,26.1284099 C11.7316305,26.1284099 11.4965004,25.8932798 11.4965004,25.6058417 L11.4965004,3.65797739 C11.4965004,3.37053936 11.7316305,3.13540919 12.0190686,3.13540919 L14.1093414,3.13540919 C14.3967794,3.13540919 14.6319096,3.37053936 14.6319096,3.65797739 L14.6319096,25.6058417 C14.6319096,25.8932798 14.3967794,26.1284099 14.1093414,26.1284099 Z" id="Path" fill="#FFFFFF"></path>
                <path d="M29.7863873,26.1284099 L27.6961145,26.1284099 C27.4086765,26.1284099 27.1735463,25.8932798 27.1735463,25.6058417 L27.1735463,3.65797739 C27.1735463,3.37053936 27.4086765,3.13540919 27.6961145,3.13540919 L29.7863873,3.13540919 C30.0738253,3.13540919 30.3089555,3.37053936 30.3089555,3.65797739 L30.3089555,25.6058417 C30.3089555,25.8932798 30.0738253,26.1284099 29.7863873,26.1284099 Z" id="Path" fill="#FFFFFF"></path>
                <path d="M7.83852298,21.9478643 L5.74825018,21.9478643 C5.46081216,21.9478643 5.22568199,21.7127342 5.22568199,21.4252961 L5.22568199,7.83852298 C5.22568199,7.55108495 5.46081216,7.31595478 5.74825018,7.31595478 L7.83852298,7.31595478 C8.125961,7.31595478 8.36109118,7.55108495 8.36109118,7.83852298 L8.36109118,21.4252961 C8.36109118,21.7127342 8.125961,21.9478643 7.83852298,21.9478643 Z" id="Path" fill="#FFFFFF"></path>
                <path d="M36.0572057,21.9478643 L33.9669329,21.9478643 C33.6794949,21.9478643 33.4443647,21.7127342 33.4443647,21.4252961 L33.4443647,7.83852298 C33.4443647,7.55108495 33.6794949,7.31595478 33.9669329,7.31595478 L36.0572057,7.31595478 C36.3446437,7.31595478 36.5797739,7.55108495 36.5797739,7.83852298 L36.5797739,21.4252961 C36.5797739,21.7127342 36.3446437,21.9478643 36.0572057,21.9478643 Z" id="Path" fill="#FFFFFF"></path>
            </g>
        </g>
    </g>
</svg>