<?xml version="1.0" encoding="UTF-8"?>
<svg width="201px" height="178px" viewBox="0 0 201 178" version="1.1" xmlns="http://www.w3.org/2000/svg" xmlns:xlink="http://www.w3.org/1999/xlink">
    <title>Group 7 Copy 2</title>
    <defs>
        <polygon id="path-1" points="5.50228571 1.50285714 68.3594286 1.50285714 68.3594286 64.3571429 5.50228571 64.3571429"></polygon>
        <polygon id="path-3" points="0.00153633454 4.04710196 196.714286 4.04710196 196.714286 131.425714 0.00153633454 131.425714"></polygon>
    </defs>
    <g id="Native-designed" stroke="none" stroke-width="1" fill="none" fill-rule="evenodd">
        <g id="Group-7-Copy-2" transform="translate(0.654206, 0.000000)">
            <g id="Group-3" transform="translate(62.857143, 4.213143)">
                <mask id="mask-2" fill="white">
                    <use xlink:href="#path-1"></use>
                </mask>
                <g id="Clip-2"></g>
                <path d="M68.3594286,32.9285714 C68.3594286,50.2885714 54.2851429,64.3571429 36.9308571,64.3571429 C19.5708571,64.3571429 5.50228571,50.2885714 5.50228571,32.9285714 C5.50228571,15.5685714 19.5708571,1.5 36.9308571,1.5 C54.2851429,1.5 68.3594286,15.5685714 68.3594286,32.9285714" id="Fill-1" fill="#4E8ECB" mask="url(#mask-2)"></path>
            </g>
            <g id="Group-6" transform="translate(0.000000, 44.213143)">
                <mask id="mask-4" fill="white">
                    <use xlink:href="#path-3"></use>
                </mask>
                <g id="Clip-5"></g>
                <path d="M196.294286,25.6771429 C194.402857,14.94 185.625714,6.23714286 174.871429,4.43142857 C160.22,1.97428571 147.328571,11.5914286 144.477143,24.9285714 C144.477143,24.9285714 140.751429,44.9914286 129.785714,56.6085714 C120.488571,66.4485714 112.254286,70.9685714 106.74,74.1857143 C102.894286,76.4314286 94.0314286,76.5171429 89.9742857,74.1857143 C84.2028571,70.8657143 76.2257143,66.4485714 66.9285714,56.6085714 C55.9571429,44.9914286 52.2428571,24.9285714 52.2428571,24.9285714 C49.3914286,11.5914286 36.4942857,1.97428571 21.8485714,4.43142857 C11.0942857,6.23714286 2.31714286,14.94 0.425714286,25.6771429 C-2.07714286,39.8771429 6.78571429,52.3228571 19.3742857,55.82 L19.2942857,55.8942857 C19.2942857,55.8942857 19.4714286,55.9114286 19.7228571,55.9285714 C21.34,56.3571429 23.0142857,56.6142857 24.74,56.7228571 C31.4885714,58.1342857 43.5628571,61.9171429 55.3685714,71.9742857 C69.1857143,83.7457143 72.2085714,93.6828571 72.5342857,99.4942857 C72.8657143,105.494286 71.7171429,110.957143 75.2142857,117.391429 C79.1742857,124.677143 88.6371429,131.351429 98.3571429,131.425714 C108.077143,131.351429 117.54,124.677143 121.5,117.391429 C124.991429,110.957143 123.848571,105.494286 124.185714,99.4942857 C124.505714,93.6828571 127.528571,83.7457143 141.345714,71.9742857 C153.145714,61.9171429 165.225714,58.1342857 171.974286,56.7228571 C173.705714,56.6142857 175.38,56.3571429 176.997143,55.9285714 C177.242857,55.9114286 177.414286,55.8942857 177.414286,55.8942857 L177.345714,55.82 C189.928571,52.3228571 198.791429,39.8771429 196.294286,25.6771429" id="Fill-4" fill="#D9D9D9" mask="url(#mask-4)"></path>
            </g>
        </g>
    </g>
</svg>