<?xml version="1.0" encoding="UTF-8"?>
<svg width="200px" height="113px" viewBox="0 0 200 113" version="1.1" xmlns="http://www.w3.org/2000/svg" xmlns:xlink="http://www.w3.org/1999/xlink">
    <title>Group 30</title>
    <defs>
        <polygon id="path-1" points="1.10838929 0.302737961 13.7704333 0.302737961 13.7704333 12.9642064 1.10838929 12.9642064"></polygon>
        <polygon id="path-3" points="0.000309481703 0.815254732 39.6264423 0.815254732 39.6264423 26.4746074 0.000309481703 26.4746074"></polygon>
    </defs>
    <g id="Native-designed" stroke="none" stroke-width="1" fill="none" fill-rule="evenodd">
        <g id="Group-30">
            <g id="Group-7-Copy-2" transform="translate(75.700935, 0.000000)">
                <g id="Group-3" transform="translate(12.662044, 0.848702)">
                    <mask id="mask-2" fill="white">
                        <use xlink:href="#path-1"></use>
                    </mask>
                    <g id="Clip-2"></g>
                    <path d="M13.7704333,6.63318442 C13.7704333,10.1302108 10.9352865,12.9642064 7.4394113,12.9642064 C3.94238496,12.9642064 1.10838929,10.1302108 1.10838929,6.63318442 C1.10838929,3.13615808 3.94238496,0.302162414 7.4394113,0.302162414 C10.9352865,0.302162414 13.7704333,3.13615808 13.7704333,6.63318442" id="Fill-1" fill="#4E8ECB" mask="url(#mask-2)"></path>
                </g>
                <g id="Group-6" transform="translate(0.000000, 8.906367)">
                    <mask id="mask-4" fill="white">
                        <use xlink:href="#path-3"></use>
                    </mask>
                    <g id="Clip-5"></g>
                    <path d="M39.5418368,5.17244498 C39.1608244,3.00953764 37.3927426,1.25642009 35.226382,0.892674103 C32.2749746,0.397703292 29.6781045,2.33499603 29.1037082,5.02165155 C29.1037082,5.02165155 28.3531943,9.06314578 26.1442432,11.4033217 C24.2714117,13.3855072 22.612684,14.2960232 21.5018774,14.9440897 C20.7271905,15.39647 18.9418423,15.4137364 18.1245649,14.9440897 C16.9619591,14.2753035 15.3550306,13.3855072 13.4821991,11.4033217 C11.2720969,9.06314578 10.5238852,5.02165155 10.5238852,5.02165155 C9.94948886,2.33499603 7.35146765,0.397703292 4.40121139,0.892674103 C2.23485077,1.25642009 0.466768986,3.00953764 0.0857565708,5.17244498 C-0.418423,8.03291583 1.36692521,10.5400005 3.90278729,11.2444706 L3.88667197,11.2594349 C3.88667197,11.2594349 3.92235591,11.2628882 3.97300408,11.2663414 C4.29876394,11.3526736 4.63603475,11.4044728 4.98366542,11.4263436 C6.3431085,11.7106641 8.77537205,12.4726889 11.1535341,14.4986159 C13.9368816,16.8698715 14.5458108,18.8716255 14.6114232,20.042289 C14.6781868,21.2509387 14.4468167,22.3513854 15.1512868,23.6475183 C15.9489955,25.1151643 17.8552087,26.4596432 19.8132211,26.4746074 C21.7712336,26.4596432 23.6774468,25.1151643 24.4751555,23.6475183 C25.1784745,22.3513854 24.9482555,21.2509387 25.0161701,20.042289 C25.0806315,18.8716255 25.6895607,16.8698715 28.4729082,14.4986159 C30.8499191,12.4726889 33.2833338,11.7106641 34.6427769,11.4263436 C34.9915586,11.4044728 35.3288294,11.3526736 35.6545893,11.2663414 C35.7040864,11.2628882 35.7386192,11.2594349 35.7386192,11.2594349 L35.7248061,11.2444706 C38.2595171,10.5400005 40.0448653,8.03291583 39.5418368,5.17244498" id="Fill-4" fill="#D9D9D9" mask="url(#mask-4)"></path>
                </g>
            </g>
            <path d="M2.34392523,103.484112 L2.34392523,81.3233645 L2.41495327,81.3233645 L12.1457944,103.484112 L13.1757009,103.484112 L22.764486,81.3233645 L22.835514,81.3233645 L22.835514,103.484112 L25.1794393,103.484112 L25.1794393,78.3401869 L21.8411215,78.3401869 L12.6785047,99.435514 L3.51588785,78.3401869 L-5.31246905e-14,78.3401869 L-5.31246905e-14,103.484112 L2.34392523,103.484112 Z M39.0248331,103.91028 C40.2796618,103.91028 41.4338674,103.697196 42.4874499,103.271028 C43.5410325,102.84486 44.452559,102.24704 45.2220294,101.47757 C45.9914998,100.7081 46.5893191,99.7965732 47.0154873,98.7429907 C47.4416555,97.6894081 47.6547397,96.5352025 47.6547397,95.2803738 C47.6547397,94.0255452 47.4416555,92.8713396 47.0154873,91.817757 C46.5893191,90.7641745 45.9914998,89.852648 45.2220294,89.0831776 C44.452559,88.3137072 43.5410325,87.7158879 42.4874499,87.2897196 C41.4338674,86.8635514 40.2796618,86.6504673 39.0248331,86.6504673 C37.7700045,86.6504673 36.6098798,86.8635514 35.5444593,87.2897196 C34.4790387,87.7158879 33.5675122,88.3137072 32.8098798,89.0831776 C32.0522474,89.852648 31.4603471,90.7641745 31.0341789,91.817757 C30.6080107,92.8713396 30.3949266,94.0255452 30.3949266,95.2803738 C30.3949266,96.5352025 30.6080107,97.6894081 31.0341789,98.7429907 C31.4603471,99.7965732 32.0522474,100.7081 32.8098798,101.47757 C33.5675122,102.24704 34.4790387,102.84486 35.5444593,103.271028 C36.6098798,103.697196 37.7700045,103.91028 39.0248331,103.91028 Z M39.0248331,101.992523 C38.0304406,101.992523 37.1307521,101.814953 36.3257677,101.459813 C35.5207833,101.104673 34.8341789,100.625234 34.2659546,100.021495 C33.6977303,99.417757 33.2656431,98.7074766 32.9696929,97.8906542 C32.6737428,97.0738318 32.5257677,96.2037383 32.5257677,95.2803738 C32.5257677,94.3570093 32.6737428,93.4869159 32.9696929,92.6700935 C33.2656431,91.853271 33.6977303,91.1429907 34.2659546,90.5392523 C34.8341789,89.935514 35.5207833,89.4560748 36.3257677,89.1009346 C37.1307521,88.7457944 38.0304406,88.5682243 39.0248331,88.5682243 C40.0192256,88.5682243 40.9189141,88.7457944 41.7238985,89.1009346 C42.528883,89.4560748 43.2154873,89.935514 43.7837116,90.5392523 C44.3519359,91.1429907 44.7840231,91.853271 45.0799733,92.6700935 C45.3759235,93.4869159 45.5238985,94.3570093 45.5238985,95.2803738 C45.5238985,96.2037383 45.3759235,97.0738318 45.0799733,97.8906542 C44.7840231,98.7074766 44.3519359,99.417757 43.7837116,100.021495 C43.2154873,100.625234 42.528883,101.104673 41.7238985,101.459813 C40.9189141,101.814953 40.0192256,101.992523 39.0248331,101.992523 Z M60.8253672,103.91028 C62.0801958,103.91028 63.2344014,103.697196 64.287984,103.271028 C65.3415665,102.84486 66.253093,102.24704 67.0225634,101.47757 C67.7920338,100.7081 68.3898531,99.7965732 68.8160214,98.7429907 C69.2421896,97.6894081 69.4552737,96.5352025 69.4552737,95.2803738 C69.4552737,94.0255452 69.2421896,92.8713396 68.8160214,91.817757 C68.3898531,90.7641745 67.7920338,89.852648 67.0225634,89.0831776 C66.253093,88.3137072 65.3415665,87.7158879 64.287984,87.2897196 C63.2344014,86.8635514 62.0801958,86.6504673 60.8253672,86.6504673 C60.2097908,86.6504673 59.5823765,86.7155763 58.9431242,86.8457944 C58.3038718,86.9760125 57.6942145,87.1772586 57.1141522,87.4495327 C56.5340899,87.7218069 55.9954606,88.065109 55.4982644,88.4794393 C55.0010681,88.8937695 54.5867379,89.3850467 54.2552737,89.953271 L54.2552737,89.953271 L54.1842457,89.953271 L54.1842457,76.635514 L52.0534045,76.635514 L52.0534045,103.484112 L54.1842457,103.484112 L54.1842457,100.607477 L54.2552737,100.607477 C54.5867379,101.175701 55.0010681,101.666978 55.4982644,102.081308 C55.9954606,102.495639 56.5340899,102.838941 57.1141522,103.111215 C57.6942145,103.383489 58.3038718,103.584735 58.9431242,103.714953 C59.5823765,103.845171 60.2097908,103.91028 60.8253672,103.91028 Z M60.8253672,101.992523 C59.8546506,101.992523 58.9549622,101.814953 58.1263017,101.459813 C57.2976413,101.104673 56.5755229,100.625234 55.9599466,100.021495 C55.3443703,99.417757 54.859012,98.7074766 54.5038718,97.8906542 C54.1487316,97.0738318 53.9711615,96.2037383 53.9711615,95.2803738 C53.9711615,94.3570093 54.1487316,93.4869159 54.5038718,92.6700935 C54.859012,91.853271 55.3443703,91.1429907 55.9599466,90.5392523 C56.5755229,89.935514 57.2976413,89.4560748 58.1263017,89.1009346 C58.9549622,88.7457944 59.8546506,88.5682243 60.8253672,88.5682243 C61.8197597,88.5682243 62.7194482,88.7457944 63.5244326,89.1009346 C64.329417,89.4560748 65.0160214,89.935514 65.5842457,90.5392523 C66.15247,91.1429907 66.5845572,91.853271 66.8805073,92.6700935 C67.1764575,93.4869159 67.3244326,94.3570093 67.3244326,95.2803738 C67.3244326,96.2037383 67.1764575,97.0738318 66.8805073,97.8906542 C66.5845572,98.7074766 66.15247,99.417757 65.5842457,100.021495 C65.0160214,100.625234 64.329417,101.104673 63.5244326,101.459813 C62.7194482,101.814953 61.8197597,101.992523 60.8253672,101.992523 Z M75.7361816,82.1757009 C76.1860258,82.1757009 76.564842,82.0218069 76.8726302,81.7140187 C77.1804183,81.4062305 77.3343124,81.0274143 77.3343124,80.5775701 C77.3343124,80.1277259 77.1804183,79.7489097 76.8726302,79.4411215 C76.564842,79.1333333 76.1860258,78.9794393 75.7361816,78.9794393 C75.2863373,78.9794393 74.9075211,79.1333333 74.599733,79.4411215 C74.2919448,79.7489097 74.1380507,80.1277259 74.1380507,80.5775701 C74.1380507,81.0274143 74.2919448,81.4062305 74.599733,81.7140187 C74.9075211,82.0218069 75.2863373,82.1757009 75.7361816,82.1757009 Z M76.8016021,103.484112 L76.8016021,87.0766355 L74.670761,87.0766355 L74.670761,103.484112 L76.8016021,103.484112 Z M85.4264352,103.484112 L85.4264352,76.635514 L83.2955941,76.635514 L83.2955941,103.484112 L85.4264352,103.484112 Z M93.0213618,82.1757009 C93.4712061,82.1757009 93.8500223,82.0218069 94.1578104,81.7140187 C94.4655986,81.4062305 94.6194927,81.0274143 94.6194927,80.5775701 C94.6194927,80.1277259 94.4655986,79.7489097 94.1578104,79.4411215 C93.8500223,79.1333333 93.4712061,78.9794393 93.0213618,78.9794393 C92.5715176,78.9794393 92.1927014,79.1333333 91.8849132,79.4411215 C91.5771251,79.7489097 91.423231,80.1277259 91.423231,80.5775701 C91.423231,81.0274143 91.5771251,81.4062305 91.8849132,81.7140187 C92.1927014,82.0218069 92.5715176,82.1757009 93.0213618,82.1757009 Z M94.0867824,103.484112 L94.0867824,87.0766355 L91.9559413,87.0766355 L91.9559413,103.484112 L94.0867824,103.484112 Z M105.659279,103.91028 C106.061771,103.91028 106.523453,103.85109 107.044326,103.73271 C107.565198,103.61433 108.02688,103.484112 108.429372,103.342056 L108.429372,103.342056 L108.251802,101.424299 C107.872986,101.590031 107.476413,101.726168 107.062083,101.83271 C106.647753,101.939252 106.239341,101.992523 105.836849,101.992523 C105.126569,101.992523 104.570182,101.791277 104.16769,101.388785 C103.765198,100.986293 103.563952,100.418069 103.563952,99.6841121 L103.563952,99.6841121 L103.563952,88.9943925 L108.251802,88.9943925 L108.251802,87.0766355 L103.563952,87.0766355 L103.563952,82.353271 L101.433111,82.353271 L101.433111,87.0766355 L97.8817089,87.0766355 L97.8817089,88.9943925 L101.433111,88.9943925 L101.433111,99.6841121 C101.433111,100.276012 101.510058,100.82648 101.663952,101.335514 C101.817846,101.844548 102.060525,102.288474 102.391989,102.66729 C102.723453,103.046106 103.16146,103.347975 103.706008,103.572897 C104.250556,103.797819 104.901647,103.91028 105.659279,103.91028 Z M112.259813,112.007477 C113.443614,112.007477 114.390654,111.699688 115.100935,111.084112 C115.811215,110.468536 116.367601,109.628037 116.770093,108.562617 L116.770093,108.562617 L125.22243,87.0766355 L122.949533,87.0766355 L117.657944,100.891589 L112.224299,87.0766355 L109.84486,87.0766355 L116.521495,103.55514 L115.029907,107.35514 C114.911526,107.686604 114.775389,108.01215 114.621495,108.331776 C114.467601,108.651402 114.284112,108.941433 114.071028,109.201869 C113.857944,109.462305 113.603427,109.675389 113.307477,109.841121 C113.011526,110.006854 112.674143,110.08972 112.295327,110.08972 C111.963863,110.08972 111.638318,110.048287 111.318692,109.965421 C110.999065,109.882555 110.685358,109.793769 110.37757,109.699065 L110.37757,109.699065 L110.164486,111.68785 C110.49595,111.782555 110.839252,111.859502 111.194393,111.918692 C111.549533,111.977882 111.904673,112.007477 112.259813,112.007477 Z M131.645394,103.484112 L131.645394,91.5514019 L145.708945,91.5514019 L145.708945,103.484112 L148.05287,103.484112 L148.05287,78.3401869 L145.708945,78.3401869 L145.708945,89.4205607 L131.645394,89.4205607 L131.645394,78.3401869 L129.301469,78.3401869 L129.301469,103.484112 L131.645394,103.484112 Z M160.513218,103.91028 C161.839074,103.91028 162.999199,103.584735 163.993591,102.933645 C164.987984,102.282555 165.698264,101.507165 166.124433,100.607477 L166.124433,100.607477 L166.230975,100.607477 C166.278327,100.773209 166.307922,101.140187 166.31976,101.708411 C166.331598,102.276636 166.349355,102.868536 166.373031,103.484112 L166.373031,103.484112 L168.503872,103.484112 C168.503872,103.271028 168.492034,102.969159 168.468358,102.578505 C168.444682,102.18785 168.426925,101.767601 168.415087,101.317757 C168.403249,100.867913 168.385492,100.423988 168.361816,99.9859813 C168.33814,99.5479751 168.326302,99.1750779 168.326302,98.8672897 L168.326302,98.8672897 L168.326302,87.0766355 L166.195461,87.0766355 L166.195461,95.2803738 C166.195461,96.4168224 166.047486,97.405296 165.751535,98.2457944 C165.455585,99.0862928 165.053093,99.7847352 164.544059,100.341121 C164.035024,100.897508 163.431286,101.311838 162.732844,101.584112 C162.034401,101.856386 161.294526,101.992523 160.513218,101.992523 C159.660881,101.992523 158.968358,101.844548 158.435648,101.548598 C157.902937,101.252648 157.488607,100.856075 157.192657,100.358879 C156.896707,99.8616822 156.689542,99.2993769 156.571162,98.6719626 C156.452781,98.0445483 156.393591,97.3993769 156.393591,96.7364486 L156.393591,96.7364486 L156.393591,87.0766355 L154.26275,87.0766355 L154.26275,96.8429907 C154.26275,97.7426791 154.345616,98.6186916 154.511348,99.471028 C154.677081,100.323364 154.990788,101.075078 155.45247,101.726168 C155.914152,102.377259 156.553405,102.90405 157.370227,103.306542 C158.187049,103.709034 159.234713,103.91028 160.513218,103.91028 Z M182.597864,103.91028 C183.852692,103.91028 185.006898,103.697196 186.060481,103.271028 C187.114063,102.84486 188.02559,102.24704 188.79506,101.47757 C189.56453,100.7081 190.16235,99.7965732 190.588518,98.7429907 C191.014686,97.6894081 191.22777,96.5352025 191.22777,95.2803738 C191.22777,94.0255452 191.014686,92.8713396 190.588518,91.817757 C190.16235,90.7641745 189.56453,89.852648 188.79506,89.0831776 C188.02559,88.3137072 187.114063,87.7158879 186.060481,87.2897196 C185.006898,86.8635514 183.852692,86.6504673 182.597864,86.6504673 C181.982287,86.6504673 181.354873,86.7155763 180.715621,86.8457944 C180.076368,86.9760125 179.466711,87.1772586 178.886649,87.4495327 C178.306587,87.7218069 177.767957,88.065109 177.270761,88.4794393 C176.773565,88.8937695 176.359235,89.3850467 176.02777,89.953271 L176.02777,89.953271 L175.956742,89.953271 L175.956742,76.635514 L173.825901,76.635514 L173.825901,103.484112 L175.956742,103.484112 L175.956742,100.607477 L176.02777,100.607477 C176.359235,101.175701 176.773565,101.666978 177.270761,102.081308 C177.767957,102.495639 178.306587,102.838941 178.886649,103.111215 C179.466711,103.383489 180.076368,103.584735 180.715621,103.714953 C181.354873,103.845171 181.982287,103.91028 182.597864,103.91028 Z M182.597864,101.992523 C181.627147,101.992523 180.727459,101.814953 179.898798,101.459813 C179.070138,101.104673 178.34802,100.625234 177.732443,100.021495 C177.116867,99.417757 176.631509,98.7074766 176.276368,97.8906542 C175.921228,97.0738318 175.743658,96.2037383 175.743658,95.2803738 C175.743658,94.3570093 175.921228,93.4869159 176.276368,92.6700935 C176.631509,91.853271 177.116867,91.1429907 177.732443,90.5392523 C178.34802,89.935514 179.070138,89.4560748 179.898798,89.1009346 C180.727459,88.7457944 181.627147,88.5682243 182.597864,88.5682243 C183.592256,88.5682243 184.491945,88.7457944 185.296929,89.1009346 C186.101914,89.4560748 186.788518,89.935514 187.356742,90.5392523 C187.924967,91.1429907 188.357054,91.853271 188.653004,92.6700935 C188.948954,93.4869159 189.096929,94.3570093 189.096929,95.2803738 C189.096929,96.2037383 188.948954,97.0738318 188.653004,97.8906542 C188.357054,98.7074766 187.924967,99.417757 187.356742,100.021495 C186.788518,100.625234 186.101914,101.104673 185.296929,101.459813 C184.491945,101.814953 183.592256,101.992523 182.597864,101.992523 Z" id="MobilityHub" fill="#5A5958" fill-rule="nonzero"></path>
            <path d="M196.551135,91.9738318 C196.938031,91.9738318 197.301059,91.8997186 197.640221,91.7514923 C197.979383,91.603266 198.275836,91.4022812 198.529579,91.1485378 C198.783323,90.8947945 198.984307,90.5983419 199.132534,90.25918 C199.28076,89.9200181 199.354873,89.5569892 199.354873,89.1700935 C199.354873,88.7831977 199.28076,88.4201688 199.132534,88.0810069 C198.984307,87.741845 198.783323,87.4453924 198.529579,87.1916491 C198.275836,86.9379057 197.979383,86.7369209 197.640221,86.5886946 C197.301059,86.4404683 196.938031,86.3663551 196.551135,86.3663551 C196.164239,86.3663551 195.80121,86.4404683 195.462048,86.5886946 C195.122886,86.7369209 194.826434,86.9379057 194.57269,87.1916491 C194.318947,87.4453924 194.117962,87.741845 193.969736,88.0810069 C193.82151,88.4201688 193.747397,88.7831977 193.747397,89.1700935 C193.747397,89.5569892 193.82151,89.9200181 193.969736,90.25918 C194.117962,90.5983419 194.318947,90.8947945 194.57269,91.1485378 C194.826434,91.4022812 195.122886,91.603266 195.462048,91.7514923 C195.80121,91.8997186 196.164239,91.9738318 196.551135,91.9738318 Z M196.551135,91.5668375 C196.21951,91.5668375 195.907983,91.5040297 195.616555,91.3784142 C195.325127,91.2527987 195.071384,91.0819616 194.855325,90.8659029 C194.639267,90.6498442 194.46843,90.3961009 194.342814,90.1046729 C194.217199,89.8132449 194.154391,89.5017184 194.154391,89.1700935 C194.154391,88.8384685 194.217199,88.526942 194.342814,88.235514 C194.46843,87.944086 194.639267,87.6903427 194.855325,87.474284 C195.071384,87.2582253 195.325127,87.0873882 195.616555,86.9617727 C195.907983,86.8361572 196.21951,86.7733494 196.551135,86.7733494 C196.88276,86.7733494 197.194286,86.8361572 197.485714,86.9617727 C197.777142,87.0873882 198.030886,87.2582253 198.246944,87.474284 C198.463003,87.6903427 198.63384,87.944086 198.759456,88.235514 C198.885071,88.526942 198.947879,88.8384685 198.947879,89.1700935 C198.947879,89.5017184 198.885071,89.8132449 198.759456,90.1046729 C198.63384,90.3961009 198.463003,90.6498442 198.246944,90.8659029 C198.030886,91.0819616 197.777142,91.2527987 197.485714,91.3784142 C197.194286,91.5040297 196.88276,91.5668375 196.551135,91.5668375 Z M196.618967,90.8960506 C196.794829,90.8960506 196.961898,90.8709275 197.120173,90.8206813 C197.278449,90.7704351 197.420394,90.696322 197.54601,90.5983419 C197.671625,90.5003618 197.77463,90.381027 197.855024,90.2403377 C197.935418,90.0996483 197.988176,89.9363481 198.013299,89.7504371 L198.013299,89.7504371 L197.606305,89.7504371 C197.586207,89.8559542 197.549778,89.9551904 197.49702,90.0481459 C197.444261,90.1411014 197.376429,90.2240076 197.293523,90.2968646 C197.210616,90.3697216 197.112636,90.4275048 196.999582,90.470214 C196.886528,90.5129233 196.762169,90.534278 196.626504,90.534278 C196.435569,90.534278 196.264731,90.4978495 196.113993,90.4249925 C195.963254,90.3521355 195.836383,90.2541554 195.733378,90.1310522 C195.630373,90.0079489 195.551235,89.8634911 195.495965,89.6976786 C195.440694,89.5318661 195.413058,89.3560044 195.413058,89.1700935 C195.413058,88.9841825 195.440694,88.8095769 195.495965,88.6462768 C195.551235,88.4829766 195.630373,88.3385187 195.733378,88.2129032 C195.836383,88.0872877 195.963254,87.9880515 196.113993,87.9151945 C196.264731,87.8423375 196.435569,87.805909 196.626504,87.805909 C196.902858,87.8109336 197.123942,87.8913275 197.289754,88.0470907 C197.455567,88.202854 197.561084,88.3837403 197.606305,88.5897498 L197.606305,88.5897498 L198.013299,88.5897498 C197.988176,88.4038388 197.935418,88.2405386 197.855024,88.0998493 C197.77463,87.9591599 197.671625,87.8398251 197.54601,87.741845 C197.420394,87.6438649 197.278449,87.5697518 197.120173,87.5195056 C196.961898,87.4692594 196.794829,87.4441363 196.618967,87.4441363 C196.362712,87.4441363 196.134091,87.4868455 195.933107,87.5722641 C195.732122,87.6576826 195.563797,87.7782735 195.428132,87.9340368 C195.292467,88.0898 195.188206,88.2731987 195.115349,88.4842327 C195.042492,88.6952668 195.006064,88.923887 195.006064,89.1700935 C195.006064,89.4213245 195.042492,89.6512009 195.115349,89.8597226 C195.188206,90.0682444 195.292467,90.2503869 195.428132,90.4061501 C195.563797,90.5619134 195.732122,90.6825043 195.933107,90.7679228 C196.134091,90.8533414 196.362712,90.8960506 196.618967,90.8960506 Z" id="©" fill="#5A5958" fill-rule="nonzero"></path>
        </g>
    </g>
</svg>